<?xml version="1.0" encoding="UTF-8" standalone="no"?>
<!-- Created with Inkscape (http://www.inkscape.org/) -->

<svg
   xmlns:dc="http://purl.org/dc/elements/1.1/"
   xmlns:cc="http://creativecommons.org/ns#"
   xmlns:rdf="http://www.w3.org/1999/02/22-rdf-syntax-ns#"
   xmlns:svg="http://www.w3.org/2000/svg"
   xmlns="http://www.w3.org/2000/svg"
   xmlns:sodipodi="http://sodipodi.sourceforge.net/DTD/sodipodi-0.dtd"
   xmlns:inkscape="http://www.inkscape.org/namespaces/inkscape"
   width="158.77983"
   height="81.131973"
   id="svg2"
   sodipodi:version="0.32"
   inkscape:version="0.92.3 (2405546, 2018-03-11)"
   sodipodi:docname="car-19 - Kopie.svg"
   inkscape:output_extension="org.inkscape.output.svg.inkscape"
   version="1.0"
   style="display:inline"
   inkscape:export-filename="C:\Dokumente und Einstellungen\Klaus\desktop\Apuan.png"
   inkscape:export-xdpi="149.99368"
   inkscape:export-ydpi="149.99368">
  <sodipodi:namedview
     id="base"
     pagecolor="#ffffff"
     bordercolor="#666666"
     borderopacity="1.0"
     gridtolerance="10000"
     guidetolerance="14"
     objecttolerance="10"
     inkscape:pageopacity="0.0"
     inkscape:pageshadow="2"
     inkscape:zoom="9.0691619"
     inkscape:cx="79.389915"
     inkscape:cy="40.565987"
     inkscape:document-units="px"
     inkscape:current-layer="layer1"
     showgrid="false"
     showguides="true"
     inkscape:guide-bbox="true"
     inkscape:object-nodes="true"
     units="cm"
     inkscape:window-width="1920"
     inkscape:window-height="1017"
     inkscape:window-x="-4"
     inkscape:window-y="9"
     inkscape:window-maximized="1"
     fit-margin-top="0"
     fit-margin-left="0"
     fit-margin-right="0"
     fit-margin-bottom="0"
     showborder="false" />
  <defs
     id="defs4" />
  <metadata
     id="metadata7">
    <rdf:RDF>
      <cc:Work
         rdf:about="">
        <dc:format>image/svg+xml</dc:format>
        <dc:type
           rdf:resource="http://purl.org/dc/dcmitype/StillImage" />
        <dc:title></dc:title>
      </cc:Work>
    </rdf:RDF>
  </metadata>
  <g
     style="display:inline"
     id="layer1"
     inkscape:groupmode="layer"
     inkscape:label="Bilder"
     transform="translate(-493.7733,-1014.7107)">
    <g
       transform="translate(79.243924,410.27047)"
       sodipodi:insensitive="true"
       style="display:none"
       inkscape:label="Temp"
       id="layer2">
      <path
         sodipodi:nodetypes="ccccc"
         id="rect2383"
         d="M 192.31387,241.12966 500.81741,139.91982 491.80269,459.14459 184.30079,417.14163 Z"
         style="opacity:0.5497835;fill:#ff0000;fill-opacity:1;stroke:#000000;stroke-width:1.01481223;stroke-linecap:round;stroke-linejoin:round;stroke-miterlimit:4;stroke-opacity:1"
         transform="matrix(0.9710209,0.2389946,0,1,0,0)"
         inkscape:connector-curvature="0" />
      <path
         style="opacity:0.5497835;fill:#ff0000;fill-opacity:1;stroke:#000000;stroke-width:0.99999994;stroke-linecap:round;stroke-linejoin:round;stroke-miterlimit:4;stroke-opacity:1"
         d="M 617.91463,317.24249 486.26172,260.26338 477.55069,576.6828 622.44192,350.31117 Z"
         id="path3158"
         sodipodi:nodetypes="ccccc"
         inkscape:connector-curvature="0" />
      <path
         transform="matrix(0.9710209,0.2389946,0,1,0,0)"
         style="opacity:0.5497835;fill:#ff0000;fill-opacity:1;stroke:#000000;stroke-width:1.01481223;stroke-linecap:round;stroke-linejoin:round;stroke-miterlimit:4;stroke-opacity:1"
         d="M 192.31387,241.12966 500.81741,139.91982 509.83212,-40.221971 236.3858,75.951988 Z"
         id="path3160"
         sodipodi:nodetypes="ccccc"
         inkscape:connector-curvature="0" />
      <path
         transform="matrix(0.9710209,0.2389946,0,1,0,0)"
         sodipodi:nodetypes="ccccc"
         id="path3162"
         d="M 636.35564,165.15693 500.81741,139.91982 509.83212,-40.221971 632.03154,129.23125 Z"
         style="opacity:0.5497835;fill:#ff0000;fill-opacity:1;stroke:#000000;stroke-width:1.01481223;stroke-linecap:round;stroke-linejoin:round;stroke-miterlimit:4;stroke-opacity:1"
         inkscape:connector-curvature="0" />
    </g>
    <g
       transform="matrix(-0.52048984,1.74762e-5,1.0332207e-5,0.52042061,733.80427,841.32468)"
       id="g3268">
      <path
         style="fill:#808080;fill-opacity:1;stroke:#000000;stroke-width:5.764184;stroke-linecap:round;stroke-linejoin:round;stroke-miterlimit:4;stroke-opacity:1"
         d="m 158.99607,448.66754 27.39109,-6.81675 1.73175,4.31333 -24.87617,16.72403 z"
         id="rect3260"
         sodipodi:nodetypes="ccccc"
         inkscape:connector-curvature="0" />
      <path
         sodipodi:nodetypes="ccccc"
         id="path3256"
         d="m 167.07108,413.90847 c -7.65906,2.65909 -6.76162,20.33908 1.30578,21.33643 2.60633,-0.1595 4.5555,-2.72357 4.37034,-5.74902 l -0.63734,-10.41422 c -0.18516,-3.02546 -2.43246,-5.33271 -5.03878,-5.17319 z"
         style="fill:#ff0000;fill-opacity:1;stroke:#000000;stroke-width:5.76418495;stroke-linecap:round;stroke-linejoin:round;stroke-miterlimit:4;stroke-opacity:1"
         inkscape:connector-curvature="0" />
      <path
         style="fill:#ff0000;fill-opacity:1;stroke:#000000;stroke-width:5.764184;stroke-linecap:round;stroke-linejoin:round;stroke-miterlimit:4;stroke-opacity:1"
         d="m 245.34797,337.08725 c 33.64416,-12.74528 54.06024,93.53207 2.0399,53.06181 -3.81917,-12.97703 -21.02244,-45.03999 -2.0399,-53.06181 z"
         id="rect3219"
         sodipodi:nodetypes="ccc"
         inkscape:connector-curvature="0" />
      <path
         style="fill:#00ffff;fill-opacity:1;stroke:#000000;stroke-width:5.76418447;stroke-linecap:round;stroke-linejoin:round;stroke-miterlimit:4;stroke-opacity:1"
         d="m 319.44329,339.45016 c 16.73208,0.44459 28.71111,19.56228 42.68135,42.01446 l -45.34894,9.33654 c -7.35747,-17.117 -5.97735,-34.234 2.66759,-51.351 z"
         id="rect3216"
         sodipodi:nodetypes="cccc"
         inkscape:connector-curvature="0" />
      <path
         style="fill:#008000;fill-opacity:1;stroke:#000000;stroke-width:5.76418447;stroke-linecap:round;stroke-linejoin:round;stroke-miterlimit:4;stroke-opacity:1"
         d="m 243.58448,366.80805 c -13.7518,-7.85817 -14.94662,6.49864 -26.89698,6.4107 -43.51148,1.13127 -69.52428,61.54868 -31,82.28125 h 243.125 c 85.86265,-33.3621 -39.18094,-91.63221 -79.51684,-90.69264 -49.52296,22.39584 -86.01043,13.25826 -105.71118,2.00069 z"
         id="rect2438"
         sodipodi:nodetypes="cccccs"
         inkscape:connector-curvature="0" />
      <path
         style="opacity:1;fill:#00c900;fill-opacity:1;stroke:#000000;stroke-width:5.76418447;stroke-linecap:round;stroke-linejoin:round;stroke-miterlimit:4;stroke-dasharray:none;stroke-opacity:1"
         d="m 179.2068,444.75414 c -7.47361,0.78565 -8.30695,13.60304 -1.23713,14.74586 75.44784,-4.74284 172.63883,-3.2698 258.49908,0 15.68376,0.82954 16.4009,-6.39742 6.50914,-11.12419 -4.82537,-2.3058 -16.85053,-4.31103 -21.63084,-5.22108 -17.1873,-43.17576 -68.02451,-44.45142 -87.52043,-3.28469 -4.7735,7.95637 -34.67518,5.38928 -40.43274,1.18281 -18.71868,-39.50117 -65.23093,-41.09571 -84.42984,-3.07889 -11.2255,11.97018 -17.80002,5.05403 -29.75724,6.78018 z"
         id="path3227"
         sodipodi:nodetypes="cccsccccc"
         inkscape:connector-curvature="0" />
      <circle
         style="opacity:1;fill:#552200;fill-opacity:1;stroke:#000000;stroke-width:7.6855793;stroke-linecap:round;stroke-linejoin:round;stroke-miterlimit:4;stroke-dasharray:none;stroke-opacity:1"
         id="path3223"
         transform="matrix(0.75,0,0,0.75,299.10604,234.08055)"
         cx="104.0358"
         cy="290.76672"
         r="45.348942" />
      <circle
         transform="matrix(0.2205882,0,0,0.2205882,357.18381,391.01587)"
         id="path3229"
         style="opacity:1;fill:#333333;fill-opacity:1;stroke:#000000;stroke-width:26.13097;stroke-linecap:round;stroke-linejoin:round;stroke-miterlimit:4;stroke-dasharray:none;stroke-opacity:1"
         cx="104.0358"
         cy="290.76672"
         r="45.348942" />
      <circle
         transform="matrix(0.75,0,0,0.75,173.10604,234.08055)"
         id="path3233"
         style="opacity:1;fill:#552200;fill-opacity:1;stroke:#000000;stroke-width:7.6855793;stroke-linecap:round;stroke-linejoin:round;stroke-miterlimit:4;stroke-dasharray:none;stroke-opacity:1"
         cx="104.0358"
         cy="290.76672"
         r="45.348942" />
      <circle
         style="opacity:1;fill:#333333;fill-opacity:1;stroke:#000000;stroke-width:26.13097;stroke-linecap:round;stroke-linejoin:round;stroke-miterlimit:4;stroke-dasharray:none;stroke-opacity:1"
         id="path3235"
         transform="matrix(0.2205882,0,0,0.2205882,231.18381,391.01587)"
         cx="104.0358"
         cy="290.76672"
         r="45.348942" />
      <path
         style="fill:#ffff00;fill-opacity:1;stroke:#000000;stroke-width:5.76418495;stroke-linecap:round;stroke-linejoin:round;stroke-miterlimit:4;stroke-opacity:1"
         d="m 447.64069,397.61513 c 10.26055,2.28118 10.50265,20.75132 0,22.30421 -3.43177,0 -6.19452,-2.54614 -6.19452,-5.70882 v -10.88657 c 0,-3.16269 2.76275,-5.70882 6.19452,-5.70882 z"
         id="rect3245"
         sodipodi:nodetypes="ccccc"
         inkscape:connector-curvature="0" />
      <path
         style="fill:#00c900;fill-opacity:1;stroke:#000000;stroke-width:5.76418495;stroke-linecap:round;stroke-linejoin:round;stroke-miterlimit:4;stroke-opacity:1"
         d="m 437.59438,395.13565 c 6.27725,0 11.33078,4.75897 11.33078,10.67034 0.64499,8.17287 -1.74338,16.374 -11.33078,16.23728 -16.52531,-0.23564 -27.50147,-12.91211 -28.4088,-19.63939 -1.44496,-10.71359 19.88977,-8.90096 28.4088,-7.26823 z"
         id="rect3242"
         sodipodi:nodetypes="ccssc"
         inkscape:connector-curvature="0" />
      <path
         style="fill:#00c900;fill-opacity:1;stroke:#000000;stroke-width:5.76418447;stroke-linecap:round;stroke-linejoin:round;stroke-miterlimit:4;stroke-opacity:1"
         d="m 206.65062,374.3347 c -15.26603,3.86538 -27.46789,15.06607 -34.05313,28.22746 -12.59097,25.09572 66.77046,-7.68453 34.05313,-28.22746 z"
         id="path3248"
         sodipodi:nodetypes="ccc"
         inkscape:connector-curvature="0" />
      <path
         style="fill:#008000;fill-opacity:1;stroke:#000000;stroke-width:5.76418447;stroke-linecap:round;stroke-linejoin:round;stroke-miterlimit:4;stroke-opacity:1"
         d="m 270.79152,415.92508 c 9.02878,5.00271 17.05259,13.3999 22.61473,25.13742 5.75756,4.20647 35.63274,6.76888 40.40625,-1.1875 1.37413,-2.90155 2.93098,-5.58245 4.59375,-8.0625 2.69103,-24.15251 -1.20809,-39.61414 -22.9375,-55.8125 -15.98023,3.26538 -30.03105,3.14041 -41.95635,1.16697 -7.23711,12.31512 -4.4942,28.13619 -2.72088,38.75811 z"
         id="path3263"
         sodipodi:nodetypes="ccccccc"
         inkscape:connector-curvature="0" />
    </g>
    <flowRoot
       style="font-style:normal;font-weight:normal;line-height:0.01%;font-family:'Bitstream Vera Sans';fill:#000000;fill-opacity:1;stroke:none;stroke-width:1px;stroke-linecap:butt;stroke-linejoin:miter;stroke-opacity:1"
       id="flowRoot3676"
       xml:space="preserve"><flowRegion
         id="flowRegion3678"><rect
           y="46.38118"
           x="96.516182"
           height="81.947701"
           width="31.868549"
           id="rect3680" /></flowRegion><flowPara
         id="flowPara3682"> </flowPara></flowRoot>  </g>
</svg>
